HIERARCHY
ROOT pelvis
{
  OFFSET 0 100 0
  CHANNELS 6 Xposition Yposition Zposition Zrotation Xrotation Yrotation
  JOINT pelvis_right_femur
  {
    OFFSET -10.78128 -3.44521 -0.5502486
    CHANNELS 3 Zrotation Xrotation Yrotation
    JOINT right_femur_tibia
    {
      OFFSET -0.8047443 -44.0398 -0.1307829
      CHANNELS 3 Zrotation Xrotation Yrotation
      JOINT right_tibia_foot
      {
        OFFSET 3.006224 -47.83518 -5
        CHANNELS 3 Zrotation Xrotation Yrotation
        End Site
        {
          OFFSET 0 -5 15
        }
      }
    }
  }
  JOINT pelvis_left_femur
  {
    OFFSET 10.78128 -3.44521 -0.5502486
    CHANNELS 3 Zrotation Xrotation Yrotation
    JOINT left_femur_tibia
    {
      OFFSET 0.8047443 -44.0398 -0.1307829
      CHANNELS 3 Zrotation Xrotation Yrotation
      JOINT left_tibia_foot
      {
        OFFSET -4.370144 -48.10324 -4.275266
        CHANNELS 3 Zrotation Xrotation Yrotation
        End Site
        {
          OFFSET 0 -5 15
        }
      }
    }
  }
  JOINT pelvis_spine1
  {
    OFFSET 0 6.468898 -3.129235
    CHANNELS 3 Zrotation Xrotation Yrotation
    JOINT spine1
    {
      OFFSET 0 23.15396 4.99043
      CHANNELS 3 Zrotation Xrotation Yrotation
      JOINT spine2
      {
        OFFSET 0 20.79997 -5.064912
        CHANNELS 3 Zrotation Xrotation Yrotation
        JOINT neck
        {
          OFFSET 0 14.38658 9.616178
          CHANNELS 3 Zrotation Xrotation Yrotation
          End Site
          {
            OFFSET 0 20 0
          }
        }
      }
      JOINT right_manubrium
      {
        OFFSET -5.722621 16.35077 3.967754
        CHANNELS 3 Zrotation Xrotation Yrotation
        JOINT right_clavicle
        {
          OFFSET -13.16364 1.694482 -4.693211
          CHANNELS 3 Zrotation Xrotation Yrotation
          JOINT right_humerus
          {
            OFFSET -28.5034 -0.3100689 -2.792744
            CHANNELS 3 Zrotation Xrotation Yrotation
            JOINT right_radius
            {
              OFFSET -25.15693 0.02248979 -1.271978
              CHANNELS 3 Zrotation Xrotation Yrotation
              End Site
              {
                OFFSET -15 0 0
              }
            }
          }
        }
      }
      JOINT left_manubrium
      {
        OFFSET 5.722621 16.35077 3.967754
        CHANNELS 3 Zrotation Xrotation Yrotation
        JOINT left_clavicle
        {
          OFFSET 13.16364 1.694482 -4.693211
          CHANNELS 3 Zrotation Xrotation Yrotation
          JOINT left_humerus
          {
            OFFSET 29.39168 -1.063119 -2.237045
            CHANNELS 3 Zrotation Xrotation Yrotation
            JOINT left_radius
            {
              OFFSET 24.59957 -0.9528479 0.9047498
              CHANNELS 3 Zrotation Xrotation Yrotation
              End Site
              {
                OFFSET 15 -0 -0
              }
            }
          }
        }
      }
    }
  }
}
MOTION
Frames: 7
Frame Time: 0.0416666666667
-1609.98 165.1442 1420.089 -3.334542 6.966256 -146.4804 5.498702 15.16227 2.274826 -0 17.66982 -0 -10.82424 -15.32452 -2.703016 4.753429 -18.40761 -1.498828 -0 0.8428827 -0 3.061311 -0.6221885 14.30078 0.9807092 -4.242319 8.601156 0.8089779 15.46905 -6.266563 0.1922982 18.37899 1.826981 0.4692202 -17.64144 2.783391 -0.6856044 -32.33026 12.87693 86.62191 18.35746 -8.790377 -0 0 31.64388 -20.52291 13.67458 14.20207 1.919219 -22.66144 -6.967411 -93.75081 8.145846 40.04008 0 0 -8.261159 6.850397 12.05361 5.825208
-1614.374 165.0207 1415.849 -3.291203 6.986757 -146.8373 5.498702 15.16227 2.274826 -0 17.66982 -0 -10.82424 -15.32452 -2.703016 4.753429 -18.40761 -1.498828 -0 0.8428822 -0 3.061311 -0.6221886 14.30078 0.9807092 -4.242319 8.601156 0.8089779 15.46905 -6.266563 0.1922983 18.37899 1.826981 0.4692201 -17.64144 2.783391 -0.6856045 -32.33026 12.87693 86.62191 18.35746 -8.790377 -0 0 31.64388 -20.52291 13.67458 14.20207 1.919219 -22.66144 -6.967411 -93.75081 8.145846 40.04008 0 0 -8.261159 6.850397 12.05361 5.825208
-1618.742 164.8972 1411.582 -3.247733 7.006991 -147.1941 5.498702 15.16227 2.274826 -0 17.66982 -0 -10.82424 -15.32452 -2.703016 4.753429 -18.40761 -1.498829 -0 0.8428818 -0 3.061311 -0.6221886 14.30078 0.9807092 -4.242319 8.601156 0.8089778 15.46905 -6.266563 0.1922983 18.37899 1.826981 0.46922 -17.64144 2.783391 -0.6856046 -32.33026 12.87693 86.62191 18.35746 -8.790377 -0 0 31.64388 -20.52291 13.67458 14.20207 1.919219 -22.66143 -6.967411 -93.75081 8.145846 40.04008 0 0 -8.261159 6.850397 12.05361 5.825208
-1623.083 164.7736 1407.288 -3.204135 7.026955 -147.551 5.498702 15.16227 2.274826 -0 17.66982 -0 -10.82424 -15.32452 -2.703016 4.753429 -18.40761 -1.498829 -0 0.8428815 -0 3.061311 -0.6221887 14.30078 0.9807093 -4.242319 8.601156 0.8089778 15.46905 -6.266563 0.1922984 18.37899 1.826981 0.46922 -17.64144 2.783391 -0.6856046 -32.33026 12.87693 86.62191 18.35746 -8.790377 -0 0 31.64388 -20.52291 13.67458 14.20207 1.919219 -22.66143 -6.967411 -93.75081 8.145846 40.04008 0 0 -8.261159 6.850397 12.05361 5.825208
-1627.398 164.6501 1402.967 -3.160412 7.046649 -147.9079 5.498702 15.16227 2.274826 -0 17.66982 -0 -10.82424 -15.32452 -2.703016 4.753429 -18.40761 -1.498829 -0 0.8428812 -0 3.061311 -0.6221887 14.30078 0.9807093 -4.242319 8.601156 0.8089778 15.46905 -6.266563 0.1922984 18.37899 1.826981 0.46922 -17.64144 2.783391 -0.6856046 -32.33026 12.87693 86.62191 18.35746 -8.790377 -0 0 31.64388 -20.52291 13.67458 14.20207 1.919219 -22.66143 -6.967411 -93.75081 8.145846 40.04008 0 0 -8.261159 6.850397 12.05361 5.825208
-1631.686 164.5266 1398.619 -3.116563 7.066072 -148.2648 5.498702 15.16227 2.274826 -0 17.66982 -0 -10.82424 -15.32452 -2.703016 4.753429 -18.40761 -1.498829 -0 0.842881 -0 3.061311 -0.6221887 14.30078 0.9807093 -4.242319 8.601156 0.8089777 15.46905 -6.266563 0.1922984 18.37899 1.826981 0.46922 -17.64144 2.783391 -0.6856046 -32.33026 12.87693 86.62191 18.35746 -8.790377 -0 0 31.64388 -20.52291 13.67458 14.20207 1.919219 -22.66143 -6.967411 -93.75081 8.145846 40.04008 0 0 -8.261159 6.850397 12.05361 5.825208
-1635.947 164.4031 1394.246 -3.072592 7.085224 -148.6218 5.498702 15.16227 2.274826 -0 17.66982 -0 -10.82424 -15.32452 -2.703016 4.753429 -18.40761 -1.498829 -0 0.8428809 -0 3.061311 -0.6221887 14.30078 0.9807092 -4.242319 8.601156 0.8089777 15.46905 -6.266563 0.1922984 18.37899 1.826981 0.46922 -17.64144 2.783391 -0.6856045 -32.33026 12.87693 86.62191 18.35746 -8.790377 -0 0 31.64388 -20.52291 13.67458 14.20207 1.91922 -22.66143 -6.967411 -93.75081 8.145846 40.04008 0 0 -8.261159 6.850397 12.05361 5.825208
